<svg xmlns="http://www.w3.org/2000/svg" xmlns:xlink="http://www.w3.org/1999/xlink" width="380" zoomAndPan="magnify" viewBox="0 0 285 89.999999" height="120" preserveAspectRatio="xMidYMid meet" version="1.0"><defs><clipPath id="a432f26a17"><path d="M 40 7.546875 L 80 7.546875 L 80 27 L 40 27 Z M 40 7.546875 " clip-rule="nonzero"/></clipPath><clipPath id="898bbb11af"><path d="M 33 61 L 89 61 L 89 82.308594 L 33 82.308594 Z M 33 61 " clip-rule="nonzero"/></clipPath><clipPath id="8c5dcdf0c1"><path d="M 21.824219 19 L 68 19 L 68 54 L 21.824219 54 Z M 21.824219 19 " clip-rule="nonzero"/></clipPath><clipPath id="8c37780b3d"><path d="M 260 72 L 262.878906 72 L 262.878906 74 L 260 74 Z M 260 72 " clip-rule="nonzero"/></clipPath><clipPath id="879cdf481f"><path d="M 246 39 L 262.878906 39 L 262.878906 59 L 246 59 Z M 246 39 " clip-rule="nonzero"/></clipPath></defs><g clip-path="url(#a432f26a17)"><path fill="#6cb33f" d="M 61.375 19.464844 C 63.171875 19.464844 64.480469 19.464844 65.132812 19.628906 C 66.601562 19.789062 66.929688 20.28125 67.09375 21.257812 L 67.09375 25.992188 C 71.015625 25.992188 75.101562 25.992188 79.023438 26.15625 C 78.695312 20.28125 77.878906 15.054688 77.226562 12.28125 C 71.832031 9.34375 65.621094 7.546875 59.085938 7.546875 C 52.875 7.546875 46.992188 9.015625 41.925781 11.792969 C 41.109375 13.097656 40.292969 17.34375 40.128906 20.605469 C 44.703125 19.953125 50.421875 19.464844 56.46875 19.300781 C 58.105469 19.300781 59.738281 19.300781 61.375 19.464844 " fill-opacity="1" fill-rule="nonzero"/></g><path fill="#fbaf34" d="M 35.386719 72.679688 C 35.386719 72.515625 35.226562 72.351562 35.226562 72.027344 C 35.226562 71.863281 35.226562 71.863281 35.0625 71.699219 C 35.0625 71.535156 34.898438 71.371094 34.898438 71.210938 C 34.898438 71.046875 34.898438 71.046875 34.734375 70.882812 C 34.734375 70.71875 34.734375 70.554688 34.570312 70.394531 C 34.570312 70.230469 34.570312 70.230469 34.40625 70.066406 C 34.40625 69.902344 34.40625 69.742188 34.246094 69.578125 C 34.246094 69.414062 34.246094 69.414062 34.246094 69.25 C 34.246094 69.085938 34.246094 68.925781 34.082031 68.761719 C 34.082031 68.597656 34.082031 68.597656 34.082031 68.433594 C 34.082031 68.269531 34.082031 68.109375 33.917969 67.945312 C 33.917969 67.945312 33.917969 67.78125 33.917969 67.78125 C 33.917969 67.617188 33.753906 67.457031 33.753906 67.128906 C 33.753906 67.128906 33.753906 66.964844 33.753906 66.964844 C 33.753906 66.800781 33.753906 66.800781 33.753906 66.640625 C 33.753906 66.476562 33.753906 66.476562 33.753906 66.3125 C 33.753906 66.148438 33.753906 66.148438 33.753906 65.984375 C 33.753906 65.824219 33.753906 65.824219 33.753906 65.660156 C 33.753906 65.496094 33.753906 65.496094 33.753906 65.332031 C 33.753906 65.167969 33.753906 65.167969 33.753906 65.007812 C 33.753906 65.007812 33.753906 64.84375 33.753906 64.84375 C 33.753906 64.679688 33.753906 64.679688 33.753906 64.679688 C 33.753906 64.679688 33.753906 64.515625 33.753906 64.515625 C 33.753906 64.515625 33.753906 64.355469 33.753906 64.355469 C 33.753906 64.355469 33.753906 64.191406 33.753906 64.191406 C 33.753906 64.191406 33.753906 64.027344 33.753906 64.027344 C 33.753906 64.027344 33.753906 63.863281 33.753906 63.863281 C 33.753906 63.699219 33.753906 63.539062 33.753906 63.375 C 33.753906 63.375 33.753906 63.210938 33.753906 63.210938 C 33.753906 63.210938 33.753906 63.210938 33.753906 63.046875 C 33.753906 63.046875 33.753906 62.882812 33.753906 62.882812 C 33.753906 62.882812 33.753906 62.882812 33.753906 62.722656 C 33.753906 62.722656 33.753906 62.558594 33.753906 62.558594 C 33.753906 62.558594 33.753906 62.558594 33.753906 62.394531 C 33.753906 62.394531 33.753906 62.230469 33.753906 62.230469 C 33.753906 62.230469 33.753906 62.070312 33.753906 62.070312 C 33.753906 62.070312 33.753906 61.90625 33.753906 61.90625 C 33.917969 61.742188 33.917969 61.414062 34.082031 61.253906 C 34.082031 61.253906 34.082031 61.253906 34.246094 61.089844 C 34.246094 61.089844 34.246094 61.089844 34.40625 61.089844 C 34.40625 61.089844 34.40625 61.089844 34.570312 61.089844 C 34.570312 61.089844 34.734375 61.089844 34.734375 61.089844 C 34.898438 60.925781 35.226562 60.925781 35.386719 60.925781 C 35.714844 60.925781 35.878906 60.925781 36.207031 60.925781 C 36.367188 60.925781 36.695312 60.925781 36.859375 60.925781 C 37.351562 60.925781 38.492188 61.089844 40.292969 61.253906 C 40.453125 61.253906 40.617188 61.253906 40.78125 61.253906 C 40.78125 58.152344 40.945312 56.027344 40.945312 56.027344 C 40.945312 56.027344 30.8125 55.703125 23.296875 54.394531 C 25.417969 62.070312 29.832031 68.761719 35.878906 73.65625 C 35.714844 73.332031 35.714844 73.003906 35.550781 72.679688 C 35.386719 72.84375 35.386719 72.84375 35.386719 72.679688 " fill-opacity="1" fill-rule="nonzero"/><g clip-path="url(#898bbb11af)"><path fill="#f15d22" d="M 46.828125 71.046875 C 43.886719 71.046875 43.886719 69.414062 43.886719 68.597656 C 43.886719 68.269531 43.886719 65.496094 43.722656 61.742188 C 42.578125 61.578125 41.597656 61.578125 40.617188 61.414062 C 38.492188 61.253906 37.1875 61.089844 36.695312 61.089844 C 36.695312 61.089844 36.695312 61.089844 36.859375 61.089844 C 36.859375 61.089844 36.859375 61.089844 36.695312 61.089844 C 36.367188 61.089844 36.207031 61.089844 36.042969 61.089844 C 35.714844 61.089844 35.550781 61.089844 35.226562 61.089844 C 34.898438 61.089844 34.734375 61.089844 34.570312 61.253906 C 34.570312 61.253906 34.40625 61.253906 34.40625 61.253906 C 34.40625 61.253906 34.40625 61.253906 34.246094 61.253906 C 34.246094 61.253906 34.246094 61.253906 34.082031 61.253906 C 34.082031 61.253906 34.082031 61.253906 33.917969 61.414062 C 33.917969 61.742188 33.753906 61.90625 33.753906 62.070312 C 33.753906 62.070312 33.753906 62.230469 33.753906 62.230469 C 33.753906 62.230469 33.753906 62.394531 33.753906 62.394531 C 33.753906 62.394531 33.753906 62.558594 33.753906 62.558594 C 33.753906 62.558594 33.753906 62.558594 33.753906 62.722656 C 33.753906 62.722656 33.753906 62.882812 33.753906 62.882812 C 33.753906 62.882812 33.753906 62.882812 33.753906 63.046875 C 33.753906 63.046875 33.753906 63.210938 33.753906 63.210938 C 33.753906 63.210938 33.753906 63.210938 33.753906 63.375 C 33.753906 63.375 33.753906 63.539062 33.753906 63.539062 C 33.753906 63.699219 33.753906 63.863281 33.753906 64.027344 C 33.753906 64.027344 33.753906 64.191406 33.753906 64.191406 C 33.753906 64.191406 33.753906 64.355469 33.753906 64.355469 C 33.753906 64.355469 33.753906 64.515625 33.753906 64.515625 C 33.753906 64.515625 33.753906 64.679688 33.753906 64.679688 C 33.753906 64.679688 33.753906 64.84375 33.753906 64.84375 C 33.753906 64.84375 33.753906 65.007812 33.753906 65.007812 C 33.753906 65.007812 33.753906 65.167969 33.753906 65.167969 C 33.753906 65.167969 33.753906 65.332031 33.753906 65.496094 C 33.753906 65.496094 33.753906 65.660156 33.753906 65.824219 C 33.753906 65.984375 33.753906 65.984375 33.753906 66.148438 C 33.753906 66.3125 33.753906 66.3125 33.753906 66.476562 C 33.753906 66.640625 33.753906 66.640625 33.753906 66.800781 C 33.753906 66.964844 33.753906 66.964844 33.753906 67.128906 C 33.753906 67.128906 33.753906 67.292969 33.753906 67.292969 C 33.753906 67.457031 33.917969 67.617188 33.917969 67.945312 C 33.917969 67.945312 33.917969 68.109375 33.917969 68.109375 C 33.917969 68.269531 33.917969 68.433594 34.082031 68.597656 C 34.082031 68.761719 34.082031 68.761719 34.082031 68.925781 C 34.082031 69.085938 34.082031 69.25 34.246094 69.25 C 34.246094 69.414062 34.246094 69.414062 34.40625 69.578125 C 34.40625 69.742188 34.40625 69.902344 34.570312 70.066406 C 34.570312 70.230469 34.570312 70.230469 34.734375 70.394531 C 34.734375 70.554688 34.734375 70.71875 34.898438 70.882812 C 34.898438 71.046875 34.898438 71.046875 35.0625 71.210938 C 35.0625 71.371094 35.226562 71.535156 35.226562 71.699219 C 35.226562 71.863281 35.226562 71.863281 35.386719 72.027344 C 35.386719 72.1875 35.550781 72.351562 35.550781 72.679688 C 35.550781 72.84375 35.550781 72.84375 35.714844 73.003906 C 35.878906 73.332031 35.878906 73.65625 36.042969 73.984375 C 42.414062 79.207031 50.585938 82.308594 59.574219 82.308594 C 71.179688 82.308594 81.476562 77.085938 88.339844 68.925781 C 81.964844 70.230469 69.707031 72.1875 46.828125 71.046875 M 37.023438 61.089844 C 37.023438 61.089844 36.859375 61.089844 37.023438 61.089844 C 36.859375 61.089844 37.023438 61.089844 37.023438 61.089844 M 37.675781 61.089844 C 37.511719 61.089844 37.511719 61.089844 37.675781 61.089844 C 37.511719 61.089844 37.511719 61.089844 37.675781 61.089844 M 37.511719 61.089844 C 37.351562 61.089844 37.351562 61.089844 37.511719 61.089844 C 37.351562 61.089844 37.351562 61.089844 37.511719 61.089844 M 37.351562 61.089844 C 37.1875 61.089844 37.1875 61.089844 37.351562 61.089844 C 37.1875 61.089844 37.1875 61.089844 37.351562 61.089844 M 37.1875 61.089844 C 37.023438 61.089844 37.023438 61.089844 37.1875 61.089844 C 37.023438 61.089844 37.023438 61.089844 37.1875 61.089844 " fill-opacity="1" fill-rule="nonzero"/></g><path fill="#002d62" d="M 67.257812 25.992188 L 67.09375 21.257812 Z M 67.257812 25.992188 " fill-opacity="1" fill-rule="nonzero"/><g clip-path="url(#8c5dcdf0c1)"><path fill="#002d62" d="M 67.257812 25.992188 L 67.257812 21.257812 C 67.257812 20.28125 66.765625 19.789062 65.296875 19.628906 C 64.480469 19.464844 63.171875 19.464844 61.535156 19.464844 C 59.902344 19.464844 58.269531 19.464844 56.632812 19.464844 C 50.585938 19.628906 45.03125 20.117188 40.292969 20.769531 C 35.226562 21.421875 31.464844 22.238281 29.503906 22.566406 C 24.765625 28.769531 21.988281 36.605469 21.988281 44.929688 C 21.988281 47.539062 22.3125 49.988281 22.804688 52.4375 C 27.871094 52.765625 36.042969 53.089844 43.722656 53.253906 C 43.558594 46.234375 43.558594 40.03125 43.558594 40.03125 C 43.558594 40.03125 43.234375 37.746094 45.519531 37.417969 C 45.519531 37.417969 45.683594 37.417969 45.683594 37.417969 C 45.847656 37.417969 45.847656 37.417969 46.011719 37.417969 C 47.480469 37.417969 56.632812 37.257812 67.582031 37.257812 Z M 67.257812 25.992188 " fill-opacity="1" fill-rule="nonzero"/></g><path fill="#b2bce0" d="M 45.847656 37.257812 C 47.320312 37.257812 56.46875 37.09375 67.421875 37.09375 C 56.308594 37.09375 47.320312 37.257812 45.847656 37.257812 " fill-opacity="1" fill-rule="nonzero"/><path fill="#b2bce0" d="M 67.421875 50.640625 L 67.257812 37.257812 C 56.308594 37.257812 47.15625 37.417969 45.683594 37.417969 C 45.519531 37.417969 45.519531 37.417969 45.359375 37.417969 C 45.359375 37.417969 45.195312 37.417969 45.195312 37.417969 C 42.90625 37.746094 43.234375 40.03125 43.234375 40.03125 C 43.234375 40.03125 43.394531 46.234375 43.394531 53.253906 C 52.710938 53.417969 61.375 53.417969 63.496094 53.417969 C 67.910156 53.253906 67.421875 50.640625 67.421875 50.640625 " fill-opacity="1" fill-rule="nonzero"/><path fill="#005cab" d="M 96.019531 38.074219 C 87.523438 37.417969 76.734375 37.257812 67.257812 37.257812 L 67.421875 50.640625 C 67.421875 50.640625 67.746094 53.417969 63.660156 53.417969 C 61.535156 53.417969 52.875 53.417969 43.558594 53.253906 C 43.722656 60.597656 43.886719 68.109375 43.886719 68.597656 C 43.886719 69.414062 43.722656 71.046875 46.828125 71.046875 C 69.707031 72.1875 82.128906 70.230469 88.011719 68.761719 C 93.40625 62.230469 96.671875 53.90625 96.671875 44.765625 C 96.671875 42.644531 96.511719 40.359375 96.019531 38.074219 " fill-opacity="1" fill-rule="nonzero"/><path fill="#036cb6" d="M 46.828125 71.046875 C 69.707031 72.1875 82.128906 70.230469 88.011719 68.761719 C 81.964844 70.230469 69.707031 72.1875 46.828125 71.046875 " fill-opacity="1" fill-rule="nonzero"/><path fill="#717073" d="M 77.390625 12.28125 C 78.042969 15.054688 78.859375 20.28125 79.1875 26.15625 C 79.351562 27.953125 79.351562 29.910156 79.1875 31.871094 C 79.1875 34.808594 80.167969 34.644531 82.945312 34.808594 C 85.070312 34.972656 90.464844 34.808594 95.53125 35.625 C 92.914062 25.503906 86.214844 17.179688 77.390625 12.28125 " fill-opacity="1" fill-rule="nonzero"/><path fill="#005cab" d="M 106.644531 65.007812 L 108.605469 65.007812 L 108.605469 72.351562 L 113.179688 72.351562 L 113.179688 74.148438 L 106.644531 74.148438 Z M 106.644531 65.007812 " fill-opacity="1" fill-rule="nonzero"/><path fill="#005cab" d="M 116.773438 72.84375 C 118.082031 72.84375 118.410156 71.863281 118.410156 70.71875 C 118.410156 69.742188 118.082031 68.597656 116.773438 68.597656 C 115.46875 68.597656 115.140625 69.742188 115.140625 70.71875 C 115.304688 71.863281 115.632812 72.84375 116.773438 72.84375 M 116.773438 67.292969 C 118.898438 67.292969 120.207031 68.597656 120.207031 70.71875 C 120.207031 72.84375 118.898438 74.148438 116.773438 74.148438 C 114.652344 74.148438 113.34375 72.84375 113.34375 70.71875 C 113.34375 68.597656 114.8125 67.292969 116.773438 67.292969 " fill-opacity="1" fill-rule="nonzero"/><path fill="#005cab" d="M 125.273438 69.742188 C 125.109375 68.925781 124.621094 68.597656 123.964844 68.597656 C 122.820312 68.597656 122.496094 69.742188 122.496094 70.71875 C 122.496094 71.699219 122.820312 72.84375 123.964844 72.84375 C 124.78125 72.84375 125.273438 72.351562 125.4375 71.535156 L 127.234375 71.535156 C 127.070312 73.332031 125.761719 74.3125 124.128906 74.3125 C 122.167969 74.3125 120.859375 72.84375 120.859375 70.882812 C 120.859375 68.761719 122.167969 67.292969 124.292969 67.292969 C 125.925781 67.292969 127.234375 68.109375 127.398438 69.742188 Z M 125.273438 69.742188 " fill-opacity="1" fill-rule="nonzero"/><path fill="#005cab" d="M 131.808594 70.882812 C 131.484375 71.210938 130.828125 71.210938 130.339844 71.210938 C 129.847656 71.371094 129.195312 71.535156 129.195312 72.1875 C 129.195312 72.84375 129.6875 73.003906 130.339844 73.003906 C 131.808594 73.003906 131.808594 71.863281 131.808594 71.535156 Z M 127.5625 69.414062 C 127.726562 67.78125 129.195312 67.128906 130.667969 67.128906 C 131.972656 67.128906 133.609375 67.457031 133.609375 69.085938 L 133.609375 72.515625 C 133.609375 73.167969 133.609375 73.65625 133.773438 73.984375 L 131.972656 73.984375 C 131.972656 73.820312 131.808594 73.496094 131.808594 73.332031 C 131.15625 73.984375 130.339844 74.148438 129.523438 74.148438 C 128.214844 74.148438 127.234375 73.496094 127.234375 72.1875 C 127.234375 70.71875 128.378906 70.394531 129.523438 70.230469 C 130.667969 70.066406 131.648438 70.066406 131.648438 69.414062 C 131.648438 68.597656 131.15625 68.597656 130.503906 68.597656 C 129.847656 68.597656 129.359375 68.925781 129.359375 69.578125 L 127.5625 69.578125 Z M 127.5625 69.414062 " fill-opacity="1" fill-rule="nonzero"/><path fill="#005cab" d="M 134.589844 65.007812 L 136.386719 65.007812 L 136.386719 74.148438 L 134.589844 74.148438 Z M 134.589844 65.007812 " fill-opacity="1" fill-rule="nonzero"/><path fill="#005cab" d="M 143.578125 73.984375 L 141.617188 73.984375 L 139.328125 67.457031 L 141.289062 67.457031 L 142.597656 72.027344 L 144.066406 67.457031 L 145.863281 67.457031 Z M 143.578125 73.984375 " fill-opacity="1" fill-rule="nonzero"/><path fill="#005cab" d="M 149.132812 72.84375 C 150.441406 72.84375 150.769531 71.863281 150.769531 70.71875 C 150.769531 69.742188 150.441406 68.597656 149.132812 68.597656 C 147.828125 68.597656 147.5 69.742188 147.5 70.71875 C 147.5 71.863281 147.828125 72.84375 149.132812 72.84375 M 149.132812 67.292969 C 151.257812 67.292969 152.566406 68.597656 152.566406 70.71875 C 152.566406 72.84375 151.257812 74.148438 149.132812 74.148438 C 147.007812 74.148438 145.703125 72.84375 145.703125 70.71875 C 145.703125 68.597656 147.007812 67.292969 149.132812 67.292969 " fill-opacity="1" fill-rule="nonzero"/><path fill="#005cab" d="M 153.054688 67.457031 L 154.855469 67.457031 L 154.855469 73.984375 L 153.054688 73.984375 Z M 154.855469 66.476562 L 153.054688 66.476562 L 153.054688 65.007812 L 154.855469 65.007812 Z M 154.855469 66.476562 " fill-opacity="1" fill-rule="nonzero"/><path fill="#005cab" d="M 160.082031 69.742188 C 160.082031 69.085938 159.59375 68.597656 158.777344 68.597656 C 157.632812 68.597656 157.304688 69.742188 157.304688 70.71875 C 157.304688 71.699219 157.632812 72.84375 158.777344 72.84375 C 159.59375 72.84375 160.082031 72.351562 160.246094 71.535156 L 162.042969 71.535156 C 161.882812 73.332031 160.574219 74.3125 158.9375 74.3125 C 156.976562 74.3125 155.671875 72.84375 155.671875 70.882812 C 155.671875 68.761719 156.976562 67.292969 159.101562 67.292969 C 160.738281 67.292969 162.042969 68.109375 162.207031 69.742188 Z M 160.082031 69.742188 " fill-opacity="1" fill-rule="nonzero"/><path fill="#005cab" d="M 166.945312 70.066406 C 166.785156 69.085938 166.457031 68.597656 165.476562 68.597656 C 164.332031 68.597656 164.003906 69.414062 164.003906 70.066406 Z M 164.003906 71.210938 C 164.003906 72.351562 164.660156 72.84375 165.640625 72.84375 C 166.292969 72.84375 166.945312 72.351562 167.109375 72.027344 L 168.746094 72.027344 C 168.253906 73.65625 167.109375 74.3125 165.640625 74.3125 C 163.515625 74.3125 162.207031 72.84375 162.207031 70.882812 C 162.207031 68.925781 163.515625 67.457031 165.640625 67.457031 C 167.929688 67.457031 168.910156 69.414062 168.910156 71.371094 L 164.003906 71.371094 Z M 164.003906 71.210938 " fill-opacity="1" fill-rule="nonzero"/><path fill="#005cab" d="M 170.871094 71.863281 C 170.871094 72.679688 171.523438 73.003906 172.339844 73.003906 C 172.832031 73.003906 173.484375 72.84375 173.484375 72.1875 C 173.484375 71.699219 172.667969 71.371094 171.359375 71.210938 C 170.378906 71.046875 169.234375 70.554688 169.234375 69.414062 C 169.234375 67.78125 170.707031 67.292969 172.175781 67.292969 C 173.648438 67.292969 174.957031 67.78125 175.117188 69.414062 L 173.320312 69.414062 C 173.320312 68.761719 172.667969 68.597656 172.011719 68.597656 C 171.523438 68.597656 171.03125 68.597656 171.03125 69.25 C 171.03125 69.902344 172.011719 70.066406 173.15625 70.230469 C 174.300781 70.394531 175.28125 70.882812 175.28125 72.027344 C 175.28125 73.820312 173.8125 74.3125 172.339844 74.3125 C 170.871094 74.3125 169.234375 73.65625 169.234375 72.027344 L 170.871094 72.027344 Z M 170.871094 71.863281 " fill-opacity="1" fill-rule="nonzero"/><path fill="#005cab" d="M 175.609375 72.027344 L 177.570312 72.027344 L 177.570312 73.984375 L 175.609375 73.984375 Z M 175.609375 72.027344 " fill-opacity="1" fill-rule="nonzero"/><path fill="#005cab" d="M 187.539062 73.003906 C 186.886719 73.984375 185.90625 74.3125 185.085938 74.3125 C 182.308594 74.3125 180.675781 72.1875 180.675781 69.578125 C 180.675781 66.800781 182.308594 64.679688 185.085938 64.679688 C 186.886719 64.679688 188.683594 65.824219 189.011719 67.945312 L 187.046875 67.945312 C 186.886719 66.964844 186.066406 66.476562 185.085938 66.476562 C 183.289062 66.476562 182.636719 67.945312 182.636719 69.578125 C 182.636719 71.046875 183.289062 72.679688 185.085938 72.679688 C 186.394531 72.679688 187.210938 72.027344 187.210938 70.71875 L 185.25 70.71875 L 185.25 69.25 L 189.011719 69.25 L 189.011719 74.148438 L 187.703125 74.148438 Z M 187.539062 73.003906 " fill-opacity="1" fill-rule="nonzero"/><path fill="#005cab" d="M 190.152344 65.007812 L 191.953125 65.007812 L 191.953125 74.148438 L 190.152344 74.148438 Z M 190.152344 65.007812 " fill-opacity="1" fill-rule="nonzero"/><path fill="#005cab" d="M 195.875 72.84375 C 197.179688 72.84375 197.507812 71.863281 197.507812 70.71875 C 197.507812 69.742188 197.179688 68.597656 195.875 68.597656 C 194.566406 68.597656 194.238281 69.742188 194.238281 70.71875 C 194.238281 71.863281 194.566406 72.84375 195.875 72.84375 M 195.875 67.292969 C 198 67.292969 199.304688 68.597656 199.304688 70.71875 C 199.304688 72.84375 198 74.148438 195.875 74.148438 C 193.75 74.148438 192.441406 72.84375 192.441406 70.71875 C 192.441406 68.597656 193.75 67.292969 195.875 67.292969 " fill-opacity="1" fill-rule="nonzero"/><path fill="#005cab" d="M 203.066406 68.597656 C 201.921875 68.597656 201.59375 69.578125 201.59375 70.71875 C 201.59375 71.863281 202.085938 72.84375 203.066406 72.84375 C 204.207031 72.84375 204.535156 71.863281 204.535156 70.71875 C 204.535156 69.742188 204.046875 68.597656 203.066406 68.597656 M 199.796875 65.007812 L 201.59375 65.007812 L 201.59375 68.269531 C 202.085938 67.617188 202.902344 67.292969 203.71875 67.292969 C 205.027344 67.292969 206.496094 68.269531 206.496094 70.71875 C 206.496094 73.167969 205.027344 74.148438 203.71875 74.148438 C 202.738281 74.148438 201.921875 73.820312 201.59375 73.167969 L 201.59375 73.984375 L 199.796875 73.984375 Z M 199.796875 65.007812 " fill-opacity="1" fill-rule="nonzero"/><path fill="#005cab" d="M 211.234375 70.882812 C 210.910156 71.210938 210.253906 71.210938 209.765625 71.210938 C 209.273438 71.371094 208.621094 71.535156 208.621094 72.1875 C 208.621094 72.84375 209.113281 73.003906 209.765625 73.003906 C 211.234375 73.003906 211.234375 71.863281 211.234375 71.535156 Z M 206.988281 69.414062 C 207.148438 67.78125 208.621094 67.128906 210.09375 67.128906 C 211.398438 67.128906 213.035156 67.457031 213.035156 69.085938 L 213.035156 72.515625 C 213.035156 73.167969 213.035156 73.65625 213.195312 73.984375 L 211.398438 73.984375 C 211.398438 73.820312 211.234375 73.496094 211.234375 73.332031 C 210.582031 73.984375 209.765625 74.148438 208.949219 74.148438 C 207.640625 74.148438 206.660156 73.496094 206.660156 72.1875 C 206.660156 70.71875 207.804688 70.394531 208.949219 70.230469 C 210.09375 70.066406 211.074219 70.066406 211.074219 69.414062 C 211.074219 68.597656 210.582031 68.597656 209.929688 68.597656 C 209.273438 68.597656 208.785156 68.925781 208.785156 69.578125 L 206.988281 69.578125 Z M 206.988281 69.414062 " fill-opacity="1" fill-rule="nonzero"/><path fill="#005cab" d="M 214.015625 65.007812 L 215.8125 65.007812 L 215.8125 74.148438 L 214.015625 74.148438 Z M 214.015625 65.007812 " fill-opacity="1" fill-rule="nonzero"/><path fill="#005cab" d="M 223.984375 69.742188 C 223.820312 68.925781 223.328125 68.597656 222.675781 68.597656 C 221.53125 68.597656 221.203125 69.742188 221.203125 70.71875 C 221.203125 71.699219 221.53125 72.84375 222.675781 72.84375 C 223.492188 72.84375 223.984375 72.351562 224.148438 71.535156 L 225.945312 71.535156 C 225.78125 73.332031 224.472656 74.3125 222.839844 74.3125 C 220.878906 74.3125 219.570312 72.84375 219.570312 70.882812 C 219.570312 68.761719 220.878906 67.292969 223.003906 67.292969 C 224.636719 67.292969 225.945312 68.109375 226.109375 69.742188 Z M 223.984375 69.742188 " fill-opacity="1" fill-rule="nonzero"/><path fill="#005cab" d="M 226.269531 65.007812 L 228.070312 65.007812 L 228.070312 68.433594 C 228.558594 67.617188 229.375 67.292969 230.03125 67.292969 C 231.992188 67.292969 232.480469 68.433594 232.480469 70.066406 L 232.480469 74.148438 L 230.683594 74.148438 L 230.683594 70.394531 C 230.683594 69.25 230.355469 68.761719 229.539062 68.761719 C 228.558594 68.761719 228.070312 69.25 228.070312 70.71875 L 228.070312 74.148438 L 226.269531 74.148438 Z M 226.269531 65.007812 " fill-opacity="1" fill-rule="nonzero"/><path fill="#005cab" d="M 237.546875 70.882812 C 237.222656 71.210938 236.566406 71.210938 236.078125 71.210938 C 235.585938 71.371094 234.933594 71.535156 234.933594 72.1875 C 234.933594 72.84375 235.421875 73.003906 236.078125 73.003906 C 237.546875 73.003906 237.546875 71.863281 237.546875 71.535156 Z M 233.460938 69.414062 C 233.625 67.78125 235.097656 67.128906 236.566406 67.128906 C 237.875 67.128906 239.507812 67.457031 239.507812 69.085938 L 239.507812 72.515625 C 239.507812 73.167969 239.507812 73.65625 239.671875 73.984375 L 237.875 73.984375 C 237.875 73.820312 237.710938 73.496094 237.710938 73.332031 C 237.058594 73.984375 236.238281 74.148438 235.421875 74.148438 C 234.117188 74.148438 233.136719 73.496094 233.136719 72.1875 C 233.136719 70.71875 234.277344 70.394531 235.421875 70.230469 C 236.566406 70.066406 237.546875 70.066406 237.546875 69.414062 C 237.546875 68.597656 237.058594 68.597656 236.402344 68.597656 C 235.75 68.597656 235.257812 68.925781 235.257812 69.578125 L 233.460938 69.578125 Z M 233.460938 69.414062 " fill-opacity="1" fill-rule="nonzero"/><path fill="#005cab" d="M 240.164062 67.457031 L 241.960938 67.457031 L 241.960938 68.433594 C 242.449219 67.617188 243.269531 67.292969 243.921875 67.292969 C 245.882812 67.292969 246.371094 68.433594 246.371094 70.066406 L 246.371094 74.148438 L 244.574219 74.148438 L 244.574219 70.394531 C 244.574219 69.25 244.25 68.761719 243.429688 68.761719 C 242.449219 68.761719 241.960938 69.25 241.960938 70.71875 L 241.960938 74.148438 L 240.164062 74.148438 Z M 240.164062 67.457031 " fill-opacity="1" fill-rule="nonzero"/><path fill="#005cab" d="M 251.601562 70.71875 C 251.601562 69.578125 251.277344 68.761719 250.132812 68.761719 C 249.152344 68.761719 248.660156 69.578125 248.660156 70.71875 C 248.660156 71.699219 248.988281 72.679688 250.132812 72.679688 C 251.113281 72.515625 251.601562 71.699219 251.601562 70.71875 M 253.398438 73.65625 C 253.398438 74.800781 253.074219 76.597656 249.96875 76.597656 C 248.660156 76.597656 247.191406 75.945312 247.027344 74.472656 L 248.824219 74.472656 C 248.988281 75.128906 249.476562 75.453125 250.132812 75.453125 C 251.113281 75.453125 251.601562 74.800781 251.601562 73.820312 L 251.601562 73.003906 C 251.277344 73.65625 250.457031 73.984375 249.640625 73.984375 C 247.679688 73.984375 246.863281 72.515625 246.863281 70.71875 C 246.863281 69.085938 247.84375 67.457031 249.640625 67.457031 C 250.457031 67.457031 251.113281 67.78125 251.601562 68.433594 L 251.601562 67.617188 L 253.398438 67.617188 Z M 253.398438 73.65625 " fill-opacity="1" fill-rule="nonzero"/><path fill="#005cab" d="M 258.628906 70.066406 C 258.464844 69.085938 258.140625 68.597656 257.160156 68.597656 C 256.015625 68.597656 255.6875 69.414062 255.6875 70.066406 Z M 255.6875 71.210938 C 255.6875 72.351562 256.339844 72.84375 257.324219 72.84375 C 257.976562 72.84375 258.628906 72.351562 258.792969 72.027344 L 260.425781 72.027344 C 259.9375 73.65625 258.792969 74.3125 257.324219 74.3125 C 255.199219 74.3125 253.890625 72.84375 253.890625 70.882812 C 253.890625 68.925781 255.199219 67.457031 257.324219 67.457031 C 259.609375 67.457031 260.589844 69.414062 260.589844 71.371094 L 255.6875 71.371094 Z M 255.6875 71.210938 " fill-opacity="1" fill-rule="nonzero"/><g clip-path="url(#8c37780b3d)"><path fill="#005cab" d="M 260.917969 72.027344 L 262.878906 72.027344 L 262.878906 73.984375 L 260.917969 73.984375 Z M 260.917969 72.027344 " fill-opacity="1" fill-rule="nonzero"/></g><path fill="#002d62" d="M 106.644531 32.523438 L 112.199219 32.523438 L 112.199219 57.660156 L 106.644531 57.660156 Z M 106.644531 32.523438 " fill-opacity="1" fill-rule="nonzero"/><path fill="#002d62" d="M 115.304688 39.542969 L 120.042969 39.542969 L 120.042969 42.152344 L 120.207031 42.152344 C 121.515625 40.195312 123.640625 39.050781 125.761719 39.050781 C 131.15625 39.050781 132.464844 41.992188 132.464844 46.5625 L 132.464844 57.824219 L 127.398438 57.824219 L 127.398438 47.378906 C 127.398438 44.4375 126.582031 42.96875 124.128906 42.96875 C 121.351562 42.96875 120.207031 44.4375 120.207031 48.195312 L 120.207031 57.660156 L 115.140625 57.660156 L 115.140625 39.542969 Z M 115.304688 39.542969 " fill-opacity="1" fill-rule="nonzero"/><path fill="#002d62" d="M 141.617188 39.542969 L 145.210938 39.542969 L 145.210938 42.804688 L 141.617188 42.804688 L 141.617188 51.785156 C 141.617188 53.417969 142.105469 53.90625 143.742188 53.90625 C 144.230469 53.90625 144.722656 53.90625 145.210938 53.742188 L 145.210938 57.660156 C 144.394531 57.824219 143.25 57.824219 142.269531 57.824219 C 139.164062 57.824219 136.550781 57.171875 136.550781 53.417969 L 136.550781 42.644531 L 133.445312 42.644531 L 133.445312 39.378906 L 136.714844 39.378906 L 136.714844 33.992188 L 141.617188 33.992188 Z M 141.617188 39.542969 " fill-opacity="1" fill-rule="nonzero"/><path fill="#002d62" d="M 159.59375 46.5625 C 159.101562 43.949219 158.121094 42.644531 155.671875 42.644531 C 152.566406 42.644531 151.585938 45.09375 151.585938 46.5625 Z M 151.421875 49.824219 C 151.585938 52.925781 153.054688 54.394531 155.835938 54.394531 C 157.796875 54.394531 159.429688 53.089844 159.757812 52.109375 L 164.167969 52.109375 C 162.699219 56.355469 159.757812 58.3125 155.671875 58.3125 C 149.949219 58.3125 146.355469 54.394531 146.355469 48.683594 C 146.355469 43.296875 150.113281 39.050781 155.671875 39.050781 C 161.882812 39.050781 164.824219 44.277344 164.496094 49.824219 Z M 151.421875 49.824219 " fill-opacity="1" fill-rule="nonzero"/><path fill="#002d62" d="M 166.945312 39.542969 L 171.6875 39.542969 L 171.6875 42.96875 C 172.667969 40.683594 175.117188 39.050781 177.570312 39.050781 C 177.898438 39.050781 178.386719 39.050781 178.714844 39.214844 L 178.714844 43.785156 C 178.222656 43.621094 177.570312 43.621094 176.917969 43.621094 C 173.320312 43.621094 172.011719 46.234375 172.011719 49.5 L 172.011719 57.660156 L 166.945312 57.660156 Z M 166.945312 39.542969 " fill-opacity="1" fill-rule="nonzero"/><path fill="#002d62" d="M 180.511719 39.542969 L 185.25 39.542969 L 185.25 42.152344 L 185.414062 42.152344 C 186.722656 40.195312 188.847656 39.050781 190.972656 39.050781 C 196.363281 39.050781 197.671875 41.992188 197.671875 46.5625 L 197.671875 57.824219 L 192.605469 57.824219 L 192.605469 47.539062 C 192.605469 44.601562 191.789062 43.132812 189.335938 43.132812 C 186.558594 43.132812 185.414062 44.601562 185.414062 48.355469 L 185.414062 57.824219 L 180.347656 57.824219 L 180.347656 39.542969 Z M 180.511719 39.542969 " fill-opacity="1" fill-rule="nonzero"/><path fill="#002d62" d="M 212.542969 46.5625 C 212.054688 43.949219 211.074219 42.644531 208.621094 42.644531 C 205.515625 42.644531 204.535156 45.09375 204.535156 46.5625 Z M 204.535156 49.824219 C 204.699219 52.925781 206.167969 54.394531 208.949219 54.394531 C 210.910156 54.394531 212.542969 53.089844 212.871094 52.109375 L 217.28125 52.109375 C 215.8125 56.355469 212.871094 58.3125 208.785156 58.3125 C 203.066406 58.3125 199.46875 54.394531 199.46875 48.683594 C 199.46875 43.296875 203.226562 39.050781 208.785156 39.050781 C 214.996094 39.050781 217.9375 44.277344 217.609375 49.824219 Z M 204.535156 49.824219 " fill-opacity="1" fill-rule="nonzero"/><path fill="#002d62" d="M 240.164062 57.660156 L 235.097656 57.660156 L 231.828125 45.417969 L 231.664062 45.417969 L 228.722656 57.660156 L 223.492188 57.660156 L 217.609375 39.542969 L 223.003906 39.542969 L 226.269531 51.785156 L 226.433594 51.785156 L 229.375 39.542969 L 234.277344 39.542969 L 237.382812 51.785156 L 240.816406 39.542969 L 245.882812 39.542969 Z M 240.164062 57.660156 " fill-opacity="1" fill-rule="nonzero"/><g clip-path="url(#879cdf481f)"><path fill="#002d62" d="M 250.949219 51.785156 C 250.949219 53.90625 252.746094 54.886719 254.707031 54.886719 C 256.179688 54.886719 257.976562 54.394531 257.976562 52.601562 C 257.976562 51.132812 255.851562 50.640625 252.257812 49.824219 C 249.3125 49.171875 246.535156 48.195312 246.535156 44.929688 C 246.535156 40.359375 250.621094 39.050781 254.378906 39.050781 C 258.304688 39.050781 262.0625 40.359375 262.386719 44.929688 L 257.648438 44.929688 C 257.484375 42.96875 256.015625 42.480469 254.21875 42.480469 C 253.074219 42.480469 251.4375 42.644531 251.4375 44.113281 C 251.4375 45.90625 254.21875 46.070312 257.160156 46.886719 C 260.101562 47.539062 262.878906 48.683594 262.878906 51.949219 C 262.878906 56.679688 258.792969 58.3125 254.542969 58.3125 C 250.292969 58.3125 246.210938 56.679688 246.046875 51.949219 L 250.949219 51.949219 Z M 250.949219 51.785156 " fill-opacity="1" fill-rule="nonzero"/></g></svg>